<svg xmlns="http://www.w3.org/2000/svg" width="262.123" height="39.902" viewBox="0 0 262.123 39.902">
  <g id="Group_7616" data-name="Group 7616" transform="translate(-87 -111)">
    <g id="Group_7346" data-name="Group 7346" transform="translate(138.349 111)">
      <rect id="Rectangle_108" data-name="Rectangle 108" width="1.734" height="38.155" transform="translate(0 1.156)" fill="#f25682"/>
      <path id="Path_16069" data-name="Path 16069" d="M11.4-118.559c0,9.581,6.317,19.214,19,19.214,4.58,0,7.633-1.105,10.476-3.316a.674.674,0,0,0,.158-.948l-2.9-4a.571.571,0,0,0-.895-.105,10.224,10.224,0,0,1-6.791,2.106c-16.582,0-16.582-25.9,0-25.9a11.545,11.545,0,0,1,6.738,2.211.6.6,0,0,0,.948-.158l2.843-4.053a.633.633,0,0,0-.158-.948c-3.211-1.842-6.738-3.316-10.423-3.316C17.717-137.773,11.4-128.192,11.4-118.559Zm32.9,18.425h5.212a1.1,1.1,0,0,0,.948-.632l1.474-3.211a2.344,2.344,0,0,1,2.106-1.316H68.516a2.344,2.344,0,0,1,2.106,1.316l1.474,3.211a1.116,1.116,0,0,0,1,.632h5.159c.421,0,.579-.263.421-.632l-16.635-36.27a.825.825,0,0,0-.737-.474.908.908,0,0,0-.79.474L43.88-100.766C43.722-100.4,43.88-100.134,44.3-100.134Zm11.581-12.423,4.79-10.318q.316-.632.632-.632t.632.632l4.738,10.318c.368.842.053,1.369-.842,1.369H56.777C55.882-111.189,55.514-111.715,55.882-112.558Zm26.479,12.423h4.948a.636.636,0,0,0,.684-.684v-12.529a1.382,1.382,0,0,1,1.474-1.474H90.52a2.918,2.918,0,0,1,2.316,1.211l8.686,12.9a1.373,1.373,0,0,0,1.105.579h6.159c.421,0,.579-.211.316-.579l-9.475-13.845a1.158,1.158,0,0,1,.526-1.842c9.16-4.58,7.212-19.372-5.317-20.53-.632-.053-1.527-.053-3-.053h-9.9a.249.249,0,0,0-.263.263v35.9A.636.636,0,0,0,82.361-100.134Zm5.633-29.374a1.423,1.423,0,0,1,1.474-1.527H93.31c7.949,0,8,10.265,0,10.265H89.467a1.423,1.423,0,0,1-1.474-1.527Zm22.794,29.374h27.058a.636.636,0,0,0,.684-.684v-4.527a.636.636,0,0,0-.684-.684H122.263c-.895,0-1.211-.526-.737-1.316L137.95-136.4c.211-.368.053-.579-.368-.579H113.367a.664.664,0,0,0-.684.684v4.527a.664.664,0,0,0,.684.684h12.739c.895,0,1.211.526.79,1.316l-16.477,29.058C110.261-100.4,110.366-100.134,110.787-100.134Zm30.9-4.369c3.369,4.106,8.739,5.9,13.95,5.9,6.317,0,13.371-3.369,13.371-10.528,0-12.9-20.478-12.055-20.478-18.372,0-3.685,3.053-4.79,6.212-4.79a12.783,12.783,0,0,1,8.528,3.369.628.628,0,0,0,.948-.053l3.211-3.632a.627.627,0,0,0-.053-.948,19.935,19.935,0,0,0-12.423-4.948c-6.633,0-12.634,3.58-12.634,10.792,0,12.055,20.478,11.318,20.478,18.372,0,3.474-4.159,4.527-6.949,4.527-3.422,0-6.949-.842-9.265-3.527a.672.672,0,0,0-.948-.105l-3.843,3A.63.63,0,0,0,141.688-104.5Zm27.532-14.055c0,12.845,9.475,19.267,19,19.267,9.475,0,18.951-6.422,18.951-19.267s-9.475-19.267-18.951-19.267C178.695-137.826,169.22-131.4,169.22-118.559Zm6.212,0c0-8.633,6.37-12.9,12.792-12.9,6.37,0,12.792,4.264,12.792,12.9s-6.422,12.9-12.792,12.9C181.8-105.662,175.431-109.926,175.431-118.559Z" transform="translate(3.6 138.51)" fill="#f25682"/>
    </g>
    <path id="Union_9" data-name="Union 9" d="M17.316,38.476A19.26,19.26,0,0,1,.1,21.26a19.613,19.613,0,0,1,0-3.944A19.26,19.26,0,0,1,17.316.1,19.577,19.577,0,0,1,21.26.1,19.28,19.28,0,0,1,38.184,15.4c.129.629.227,1.274.292,1.915a19.578,19.578,0,0,1,0,3.944c-.065.641-.163,1.285-.292,1.915a19.185,19.185,0,0,1-2.9,6.9,19.4,19.4,0,0,1-5.21,5.21q-.569.384-1.165.728a3.982,3.982,0,0,1-1.142.608q-.479.235-.97.442a19.2,19.2,0,0,1-3.621,1.124c-.631.129-1.275.227-1.915.292a19.55,19.55,0,0,1-3.944,0ZM12.048,17.148c.312,0,.422.2.392.686a7.859,7.859,0,0,0,.106,2.507c.209.76-.121.919-.66,1.069-1.111.309-2.221.621-3.338.905a2.246,2.246,0,0,0-1.642,3.117,14,14,0,0,0,7.524,6.9c.848.355,1.363.119,1.646-.894a33.072,33.072,0,0,0,1-5.291c.075-.684.322-.782.924-.617a5.145,5.145,0,0,0,2.739.011c.669-.185.856.055.888.673a27.133,27.133,0,0,0,.954,5.177c.25,1,.764,1.319,1.728.919a14.421,14.421,0,0,0,7.48-6.809,2.279,2.279,0,0,0-1.372-3.424c-.673-.238-1.394-.334-2.084-.529a5.618,5.618,0,0,1-2.006-.7c-.5-.405.14-1.1.1-1.685a6.1,6.1,0,0,0,0-1.112c-.313-1.3.129-1.059,1.135-.885,1.3.225,2.52.84,3.869.822,1.044-.014,1.552-.568,1.393-1.6a7.549,7.549,0,0,0-.43-1.74c-2.225-5.368-6.1-8.532-12.01-9.082A13.715,13.715,0,0,0,5.809,16.4c-.274,1.347.6,2.11,1.942,1.756,1.312-.346,2.64-.634,3.958-.962a1.441,1.441,0,0,1,.339-.051Zm6.263,13.408a1.028,1.028,0,0,0,2.054-.082c-.019-.593-.4-.917-1.12-.981A1.023,1.023,0,0,0,18.311,30.556Zm.006-2.96a.968.968,0,0,0,1.072,1.021.984.984,0,0,0,.978-1c-.005-.664-.4-1-1.094-1.006A.948.948,0,0,0,18.317,27.6ZM30.7,20.446a.993.993,0,0,0,1.982.12c.069-.671-.3-1.011-.958-1.173A1.069,1.069,0,0,0,30.7,20.446ZM6.021,20.5a1.013,1.013,0,0,0,1.054.921.987.987,0,0,0,.988-1.1c-.059-.582-.459-.886-1.1-.939C6.428,19.539,5.946,19.864,6.021,20.5ZM9.39,19.486a.937.937,0,0,0,.95,1.022.966.966,0,0,0,1.009-.97c.017-.566-.368-.939-1.246-.993a.523.523,0,0,0-.066,0C9.657,18.541,9.4,18.972,9.39,19.486Zm18.1-.044a.935.935,0,0,0,.962,1.008.994.994,0,0,0,1.008-.958.972.972,0,0,0-1-1.023h-.026A.9.9,0,0,0,27.485,19.441ZM6.066,8.139A15.216,15.216,0,0,0,3.8,12.565c-.132.417-.241.99.421,1.194a.752.752,0,0,0,1.072-.589c.127-.417.375-.8.539-1.2a13.616,13.616,0,0,1,15.3-8.008l1.406.321a.771.771,0,0,0,.934-.576.718.718,0,0,0-.584-.975c-.345-.088-.672-.252-1.017-.336a14.378,14.378,0,0,0-3.405-.4A15.582,15.582,0,0,0,6.066,8.139ZM18.247,23.834A5.512,5.512,0,0,1,16.266,23a5.557,5.557,0,0,1-2.007-2.437,5.506,5.506,0,0,1-.323-1.04,5.592,5.592,0,0,1,0-2.233,5.507,5.507,0,0,1,.833-1.981A5.555,5.555,0,0,1,17.207,13.3a5.506,5.506,0,0,1,1.04-.323,5.593,5.593,0,0,1,2.233,0,5.508,5.508,0,0,1,1.981.833,5.557,5.557,0,0,1,2.007,2.437,5.512,5.512,0,0,1,.323,1.04,5.593,5.593,0,0,1,0,2.233,5.509,5.509,0,0,1-.834,1.981,5.554,5.554,0,0,1-2.437,2.007,5.509,5.509,0,0,1-1.04.323,5.592,5.592,0,0,1-2.233,0Zm-1.855-5.427a2.971,2.971,0,1,0,2.971-2.971A2.975,2.975,0,0,0,16.392,18.407Z" transform="translate(87 111.643)" fill="#f25682"/>
  </g>
</svg>
